<?xml version="1.0" standalone="no"?>
<!DOCTYPE svg PUBLIC "-//W3C//DTD SVG 1.0//EN" "http://www.w3.org/TR/2001/REC-SVG-20010904/DTD/svg10.dtd">
<svg xmlns="http://www.w3.org/2000/svg" xmlns:xlink="http://www.w3.org/1999/xlink" id="body_1" width="800" height="800">

<g transform="matrix(1.5625 0 0 1.5625 0 0)">
	<g>
		<g>
            <path d="M267.636 325.818L244.36299 325.818C 237.381 325.818 232.72699 321.163 232.72699 314.182C 232.72699 307.20102 237.38199 302.54602 244.36299 302.54602L244.36299 302.54602L279.272 302.54602C 286.254 302.54602 290.908 297.89102 290.908 290.91003C 290.908 283.92905 286.253 279.27405 279.272 279.27405L279.272 279.27405L267.63602 279.27405L267.63602 267.63806C 267.63602 260.65607 262.98102 256.00208 256.00003 256.00208C 249.01904 256.00208 244.36403 260.65707 244.36403 267.63806L244.36403 267.63806L244.36403 279.27405C 224.58203 279.27405 209.45503 294.40106 209.45503 314.18304C 209.45503 333.96506 224.58203 349.09204 244.36403 349.09204L244.36403 349.09204L267.63702 349.09204C 274.61902 349.09204 279.273 353.74704 279.273 360.72803C 279.273 367.709 274.618 372.364 267.63702 372.364L267.63702 372.364L232.72803 372.364C 225.74603 372.364 221.09203 377.019 221.09203 384C 221.09203 390.981 225.74702 395.636 232.72803 395.636L232.72803 395.636L244.36403 395.636L244.36403 407.27197C 244.36403 414.25397 249.01903 418.90796 256.00003 418.90796C 262.98102 418.90796 267.63602 414.25296 267.63602 407.27197L267.63602 407.27197L267.63602 395.636C 287.41803 395.636 302.545 380.50897 302.545 360.727C 302.545 340.945 287.418 325.818 267.636 325.818z" stroke="none" fill="#000000" fill-rule="nonzero" />
		</g>
	</g>
	<g>
		<g>
            <path d="M424.727 252.509L345.6 166.4C 340.945 161.745 333.96402 161.745 329.30902 165.236C 324.65402 169.89099 324.65402 176.872 328.14502 181.527L328.14502 181.527L407.27203 267.636C 436.36304 300.218 452.65402 342.10898 452.65402 385.163L452.65402 385.163L452.65402 453.818C 452.65402 473.6 437.527 488.727 417.74503 488.727L417.74503 488.727L93.091 488.727C 73.309006 488.727 58.182003 473.59998 58.182003 453.818L58.182003 453.818L58.182003 386.327C 58.182003 342.109 74.47301 300.218 103.564 268.8L103.564 268.8L179.20001 186.18199L290.909 186.18199C 297.891 186.18199 302.54498 181.527 302.54498 174.54599C 302.54498 167.56499 297.88998 162.90999 290.909 162.90999L290.909 162.90999L174.545 162.90999C 171.054 162.90999 168.727 164.07399 166.4 166.40099L166.4 166.40099L87.272995 252.50998C 53.527996 289.74597 34.908997 337.455 34.908997 386.32797L34.908997 386.32797L34.908997 453.81897C 34.908997 486.40097 60.508995 512.001 93.090996 512.001L93.090996 512.001L418.909 512.001C 451.491 512.001 477.091 486.40097 477.091 453.81897L477.091 453.81897L477.091 386.32797C 477.091 337.455 458.473 289.745 424.727 252.509z" stroke="none" fill="#000000" fill-rule="nonzero" />
		</g>
	</g>
	<g>
		<g>
            <path d="M370.036 4.655C 367.709 2.327 364.218 0 360.727 0L360.727 0L151.273 0C 147.782 0 144.291 2.327 141.96399 4.655C 139.637 8.146 138.47299 11.637 140.79999 15.128L140.79999 15.128L164.07298 84.946C 165.23698 89.601 169.89098 93.091 174.54599 93.091C 175.70999 93.091 176.87299 93.091 178.03699 91.927C 183.85498 89.6 187.346 83.782 185.01898 76.8L185.01898 76.8L167.56398 23.273003L344.43698 23.273003L329.30997 69.818L221.091 69.818C 214.10901 69.818 209.455 74.473 209.455 81.454C 209.455 88.435005 214.11 93.090004 221.091 93.090004L221.091 93.090004L337.45502 93.090004C 342.11002 93.090004 346.764 89.59901 347.928 84.94501L347.928 84.94501L371.2 15.127C 373.527 11.636 372.364 8.145 370.036 4.655z" stroke="none" fill="#000000" fill-rule="nonzero" />
		</g>
	</g>
	<g>
		<g>
            <path d="M337.454 116.364L174.545 116.364C 167.563 116.364 162.909 121.019 162.909 128C 162.909 134.981 167.564 139.636 174.545 139.636L174.545 139.636L337.45398 139.636C 344.43597 139.636 349.08997 134.981 349.08997 128C 349.08997 121.019 344.436 116.364 337.454 116.364z" stroke="none" fill="#000000" fill-rule="nonzero" />
		</g>
	</g>
</g>
</svg>